<svg id="Layer_1" data-name="Layer 1" xmlns="http://www.w3.org/2000/svg" viewBox="0 0 122.88 122.88"><title>south-korean-won-krw</title><path d="M30.27,0H92.61a30.35,30.35,0,0,1,30.27,30.27V92.61a30.35,30.35,0,0,1-30.27,30.27H30.27A30.35,30.35,0,0,1,0,92.61V30.27A30.35,30.35,0,0,1,30.27,0ZM96.68,63.54H86.06L81.14,87.31H68.42l-5.5-23.77H60.27L54.92,87.31H42.2L37.26,63.54H26.2V56.3h9.49l-.86-4.13H26.2V44.92h7.13l-1.92-9.35H43.55l1.72,9.35h9.15l2-9.35H66.77l2.07,9.35h9.22l1.65-9.35H91.93L90,44.92h6.69v7.25H88.43l-.87,4.13h9.12v7.24Zm-22,0H72.92l1,4.49.79-4.49Zm-24.36,0H48.63L49.41,68l.94-4.49ZM47.27,56.3h4.64l.94-4.13h-6.3l.72,4.13Zm24.07,0H76l.79-4.13H70.42l.92,4.13ZM92.61,12.1H30.27A18.23,18.23,0,0,0,12.1,30.27V92.61a18.23,18.23,0,0,0,18.17,18.17H92.61a18.23,18.23,0,0,0,18.17-18.17V30.27A18.23,18.23,0,0,0,92.61,12.1Z"/></svg>