<?xml version="1.0" encoding="utf-8"?><svg version="1.1" id="Layer_1" xmlns="http://www.w3.org/2000/svg" xmlns:xlink="http://www.w3.org/1999/xlink" x="0px" y="0px" viewBox="0 0 122.88 88.95" style="enable-background:new 0 0 122.88 88.95" xml:space="preserve"><g><path d="M122.88,48.09h-18.51l-8.59,40.86H73.61l-9.59-40.86H59.4l-9.33,40.86H27.9l-8.61-40.86H0V35.63h16.54l-1.49-7.1H0V16.07 h12.44L9.08,0h21.17l3,16.07H49.2L52.69,0h18.05l3.61,16.07h16.07L93.29,0h21.3l-3.38,16.07h11.67v12.46h-14.39l-1.51,7.1h15.9 V48.09L122.88,48.09z M84.58,48.09h-3.13l1.74,7.72L84.58,48.09L84.58,48.09z M42.1,48.09h-3l1.36,7.72L42.1,48.09L42.1,48.09z M36.74,35.63h8.08l1.64-7.1H35.49L36.74,35.63L36.74,35.63z M78.71,35.63h8.1l1.38-7.1h-11.1L78.71,35.63L78.71,35.63z"/></g></svg>